<svg version="1.1" xmlns="http://www.w3.org/2000/svg" width="1024" height="1024" viewBox="0 0 1024 1024">
							<g id="icomoon-ignore4">
							</g>
							<path fill="#000" d="M512.001 581.902c69.955 0 234.43-84.19 234.43-285.92 0-142.361-17.352-260.4-176.92-282.269v-9.92c-38.265-5.057-76.755-5.057-115.020 0v9.923c-159.568 21.87-176.92 139.908-176.92 282.269-0.003 201.727 164.474 285.917 234.43 285.917zM569.511 48.182c10.111 1.543 19.338 3.483 27.733 5.756l-13.695 122.574h-14.040v-128.329zM454.492 48.182v128.329h-14.040l-13.695-122.574c8.398-2.276 17.624-4.213 27.736-5.756zM312.722 245.295l2.247-1.299 1.137 6.034c4.793 25.486 16.899 62.013 28.797 63.443 68.198 8.177 118.172 11.671 167.099 11.671s98.9-3.494 167.096-11.671c11.909-1.432 24.010-37.957 28.797-63.44l1.134-6.040 2.247 1.302c0.786 16.717 1.026 33.738 1.026 50.69 0 98.605-43.539 159.701-80.067 193.59-46.024 42.704-97.123 58.203-120.239 58.203s-74.215-15.499-120.239-58.203c-36.528-33.889-80.067-94.986-80.067-193.59 0.006-16.952 0.246-33.973 1.032-50.69z"></path>
							<path fill="#000" d="M947.224 875.129c-11.967-74.421-36.606-170.282-86.026-204.348-33.747-23.267-151.489-86.174-201.767-113.034l-0.87-0.464c-5.747-3.074-12.767-2.453-17.891 1.569-26.338 20.678-55.19 34.614-85.753 41.419-5.399 1.203-9.83 5.040-11.793 10.21l-31.123 82.036-31.123-82.036c-1.963-5.17-6.394-9.006-11.793-10.21-30.563-6.806-59.415-20.742-85.753-41.419-5.127-4.025-12.147-4.642-17.891-1.569-49.681 26.547-168.864 90.738-202.49 113.399-56.889 38.325-81.766 177.033-86.174 204.45-0.438 2.72-0.186 5.501 0.734 8.096 2.036 5.747 54.248 140.775 434.489 140.775s432.454-135.028 434.489-140.775c0.916-2.598 1.171-5.382 0.734-8.099zM752.271 972.777c-58.217 14.826-136.138 25.239-240.284 25.239-104.152 0-182.064-10.413-240.29-25.239 17.793-151.898 0.902-283.548-8.11-337.43 9.064-5.031 18.306-10.111 27.486-15.145 34.138 90.245 40.175 204.525 40.175 204.525h361.472c0 0 6.046-114.385 40.231-204.647 9.172 5.011 18.404 10.074 27.466 15.084-9.006 53.775-25.958 185.547-8.145 337.613z"></path>
							</svg>