<svg width="20" height="20" viewBox="0 0 20 20" fill="none" xmlns="http://www.w3.org/2000/svg" aria-hidden="true" class="base-icon base-icon--size--l"><path d="M9.43458 7.73754C9.90321 8.20617 9.90321 8.96597 9.43458 9.4346C8.96595 9.90323 8.20615 9.90323 7.73753 9.4346C7.2689 8.96597 7.2689 8.20617 7.73753 7.73754C8.20615 7.26891 8.96595 7.26891 9.43458 7.73754Z" fill="rgba(72, 199, 116, 1)"></path><path fill-rule="evenodd" clip-rule="evenodd" d="M15.6569 4.34315C18.49 7.17631 18.7539 11.6058 16.4486 14.7364L15.2421 13.2289C14.7088 12.5626 13.7149 12.5077 13.1114 13.1111C12.5078 13.7147 12.563 14.7091 13.2297 15.2422L14.7374 16.4479C11.6068 18.754 7.17662 18.4903 4.34315 15.6569C1.21895 12.5327 1.21895 7.46734 4.34315 4.34315C7.46734 1.21895 12.5327 1.21895 15.6569 4.34315ZM7.79537 11.3746C6.51962 10.3089 5.7763 8.73783 5.76547 7.08585L5.75763 5.75764L7.08583 5.76548C8.73781 5.77631 10.3089 6.51964 11.3746 7.79539L12.7297 9.41784C13.6863 9.45698 14.5976 9.92238 15.1943 10.7139L15.5134 11.1374C15.6543 11.3244 15.5533 11.5944 15.3242 11.643L13.9957 11.9248C13.6929 11.9891 13.4153 12.1398 13.1964 12.3586L12.3586 13.1964C12.1397 13.4153 11.9891 13.6929 11.9248 13.9957L11.643 15.3243C11.5944 15.5533 11.3243 15.6543 11.1374 15.5134L10.7139 15.1943C9.92236 14.5976 9.45696 13.6864 9.41782 12.7297L7.79537 11.3746Z" fill="rgba(72, 199, 116, 1)"></path></svg>
