<svg xmlns="http://www.w3.org/2000/svg" fill="none" viewBox="0 0 24 24" aria-hidden="true" class="base-icon sidebar-navigation-link__icon base-icon--size--l"><path stroke="rgba(72, 199, 116, 1)" stroke-width="2" d="M19.1391 12.9359c.036-.3.06-.612.06-.936 0-.324-.024-.636-.072-.936l2.028-1.584c.18-.144.228-.408.12-.612l-1.92-3.324c-.12-.216-.372-.288-.588-.216l-2.388.96c-.504-.384-1.032-.696-1.62-.936l-.36-2.544c-.036-.24-.24-.408-.48-.408h-3.84c-.23997 0-.43197.168-.46797.408l-.36 2.544c-.588.24-1.128.564-1.62.936l-2.388-.96c-.216-.084-.468 0-.588.216l-1.92 3.324c-.12.216-.072.468.12.612l2.028 1.584c-.048.3-.084.624-.084.936 0 .312.024.636.072.936l-2.028 1.584c-.18.144-.228.408-.12.612l1.92 3.324c.12.216.372.288.588.216l2.388-.96c.504.384 1.032.696 1.62.936l.36 2.544c.048.24.24.408.47997.408h3.84c.24 0 .444-.168.468-.408l.36-2.544c.588-.24 1.128-.564 1.62-.936l2.388.96c.216.084.468 0 .588-.216l1.92-3.324c.12-.216.072-.468-.12-.612l-1.8-1.4714-.204-.1126zm-7.14 2.664c-1.98 0-3.59997-1.62-3.59997-3.6s1.61997-3.6 3.59997-3.6 3.6 1.62 3.6 3.6-1.62 3.6-3.6 3.6z"></path></svg>
