<svg xmlns="http://www.w3.org/2000/svg" fill="none" viewBox="0 0 24 24" aria-hidden="true" class="base-icon sidebar-navigation-link__icon base-icon--size--l"><path stroke="rgba(72, 199, 116, 1)" stroke-width="2" d="M10.3495 7.7624l-.0021-.00695-.0023-.00691c-.2957-.89501-.45621-1.85581-.45621-2.85965C9.88889 3.84772 9.04117 3 8 3H4.88889C3.84772 3 3 3.84772 3 4.88889 3 13.7878 10.2122 21 19.1111 21 20.1523 21 21 20.1523 21 19.1111v-3.1022c0-1.0412-.8477-1.8889-1.8889-1.8889-.9939 0-1.9621-.1602-2.8555-.4548-.6719-.2276-1.4241-.0531-1.9316.4544l-1.4251 1.4251c-1.836-1.0786-3.37252-2.6108-4.44479-4.4424L9.88044 9.676c.52386-.52386.67366-1.26288.46906-1.9136z"></path></svg>