<svg xmlns="http://www.w3.org/2000/svg" fill="none" viewBox="0 0 24 24" aria-hidden="true" class="base-icon sidebar-navigation-link__icon base-icon--size--l"><path fill="#fff" stroke="rgba(72, 199, 116, 1)" stroke-linecap="round" stroke-miterlimit="10" stroke-width="2" d="M15.6823 12.2923c2.2472 0 4.069-1.8217 4.069-4.06899 0-2.24726-1.8218-4.06901-4.069-4.06901-2.2473 0-4.069 1.82175-4.069 4.06901 0 2.24729 1.8217 4.06899 4.069 4.06899zM21.054 19.9421H10.3119c-.73246 0-1.13936-.7325-.89522-1.3835 1.05792-2.4414 3.41792-4.1504 6.26632-4.1504 2.8483 0 5.2083 1.709 6.2662 4.1504.2442.651-.2441 1.3835-.8952 1.3835z"></path><path fill="#fff" stroke="rgba(72, 199, 116, 1)" stroke-linecap="round" stroke-miterlimit="10" stroke-width="2" d="M9.62738 11.7938c2.70452 0 4.89692-2.19241 4.89692-4.89689C14.5243 4.19242 12.3319 2 9.62738 2 6.92289 2 4.73047 4.19242 4.73047 6.89691c0 2.70448 2.19242 4.89689 4.89691 4.89689zM16.0906 21.0001H3.16274c-.88145 0-1.37114-.8814-1.07732-1.6649 1.27319-2.9382 4.1134-4.9949 7.54124-4.9949 3.42784 0 6.26804 2.0567 7.54124 4.9949.2938.7835-.2938 1.6649-1.0773 1.6649z"></path></svg>
