<svg xmlns="http://www.w3.org/2000/svg" fill="none" viewBox="0 0 24 24" aria-hidden="true" class="base-icon sidebar-navigation-link__icon base-icon--size--l"><path stroke="rgba(72, 199, 116, 1)" stroke-width="2" d="M13.5 4.2359c2.86.69743 4.5 3.33333 4.5 6.482v5.1283l2 2.0512v1.0257H4v-1.0257l2-2.0512v-5.1283c0-3.15893 1.63-5.78457 4.5-6.482m3 0v-.69744C13.5 2.68718 12.83 2 12 2s-1.5.68718-1.5 1.53846v.69744m3 0s-.896-.19886-1.5-.19886-1.5.19886-1.5.19886M12 22c1.1 0 2-.9231 2-2.0513h-4C10 21.0769 10.89 22 12 22z"></path></svg>
