<svg width="13" height="16" viewBox="0 0 13 16" fill="none" xmlns="http://www.w3.org/2000/svg" aria-hidden="true" class="base-icon base-icon--size--l __web-inspector-hide-shortcut__"><path d="M7.19922 0H11.5992V2L10.3992 3.2C9.48962 2.44663 8.21607 2.09587 7.19922 2V0ZM5.59922 0V2C4.5827 2.09573 3.30802 2.44739 2.39922 3.2L1.19922 2V0H5.59922Z" fill="rgba(72, 199, 116, 1)"></path><path fill-rule="evenodd" clip-rule="evenodd" d="M6.4 16C9.93462 16 12.8 13.1346 12.8 9.60001C12.8 6.06539 9.93462 3.20001 6.4 3.20001C2.86538 3.20001 0 6.06539 0 9.60001C0 13.1346 2.86538 16 6.4 16ZM10.1172 8.28792C10.4028 8.00228 10.4028 7.53917 10.1172 7.25353C9.83156 6.96789 9.36844 6.96789 9.0828 7.25353L5.94285 10.3935L4.17434 8.62496C3.8887 8.33932 3.42558 8.33932 3.13994 8.62496C2.8543 8.9106 2.8543 9.37371 3.13994 9.65935L5.42566 11.9451C5.7113 12.2307 6.17441 12.2307 6.46005 11.9451L10.1172 8.28792Z" fill="rgba(72, 199, 116, 1)"></path></svg>
